<svg width="14" height="16" viewBox="0 0 14 16" fill="none" xmlns="http://www.w3.org/2000/svg">
<path d="M13.5379 0.526264C12.8962 -0.204221 11.8259 -0.170077 11.147 0.602734L8.82321 3.43129L1.45016 0.918373L0.205567 2.33544C0.0690981 2.49082 0.0692363 2.7425 0.205567 2.89772L6.18373 6.64393L3.83578 9.54431C3.62496 9.78435 3.4623 10.0507 3.3485 10.3213L0.853224 9.58593L0.0771135 10.4697C-0.0257045 10.5867 -0.0257045 10.7767 0.0771135 10.8937L2.82328 12.4799L3.07204 12.7629L4.46526 15.8897C4.56808 16.007 4.73502 16.0071 4.83784 15.8901L5.61388 15.0065L4.95676 12.1154C5.18678 11.9864 5.41308 11.8057 5.61754 11.573L8.17438 8.88904L11.4879 15.7434C11.6244 15.8988 11.8452 15.8988 11.9818 15.7436L13.2262 14.3265L11.0046 5.87489L13.4708 3.24837C14.1493 2.4754 14.1794 1.25659 13.5379 0.526264Z" fill="#13C4E5"/>
</svg>
