<svg width="32" height="35" viewBox="0 0 32 35" fill="none" xmlns="http://www.w3.org/2000/svg">
<path d="M7.3309 23.4391C6.46581 23.8242 5.88395 24.6553 5.81815 25.6C5.81815 27.2291 7.86265 28.5091 10.4727 28.5091C13.0828 28.5091 15.1273 27.2291 15.1273 25.6C15.0611 24.6525 14.4765 23.8192 13.6081 23.4345C14.7849 22.4558 15.877 21.3795 16.8727 20.217V32C16.8746 33.6058 18.176 34.9071 19.7818 34.9091H29.0909C30.6967 34.9072 31.998 33.6059 32 32V14.5455C31.9981 12.9397 30.6968 11.6383 29.0909 11.6364H20.8797C20.9212 11.2498 20.9432 10.8615 20.9454 10.4727C20.9454 4.68879 16.2566 0 10.4727 0C4.68879 0 0 4.68879 0 10.4727C0 16.3211 4.31536 20.9314 7.3309 23.4391ZM13.9636 25.6C13.9636 26.4256 12.53 27.3454 10.4727 27.3454C8.4154 27.3454 6.98181 26.4256 6.98181 25.6C6.98181 25.0944 7.50544 24.5801 8.33801 24.2426C9.34628 25.0095 10.0654 25.4516 10.1713 25.5162C10.3566 25.6284 10.5888 25.6284 10.7741 25.5162C10.844 25.4737 11.5706 25.0275 12.6016 24.2402C13.4365 24.5771 13.9636 25.0926 13.9636 25.6ZM30.8363 14.5454V31.9999C30.8363 32.9639 30.0548 33.7454 29.0909 33.7454H19.7818C18.8179 33.7454 18.0364 32.9639 18.0364 31.9999V14.5454C18.0366 13.7135 18.6239 12.9973 19.4397 12.8343L20.1036 14.1626C20.3975 14.7554 21.0029 15.1295 21.6646 15.1272H27.2082C27.8699 15.1295 28.4753 14.7554 28.7692 14.1626L29.4331 12.8343C30.2488 12.9973 30.8361 13.7135 30.8363 14.5454ZM20.7232 12.8H28.1495L27.7283 13.6419C27.6304 13.8395 27.4287 13.9643 27.2081 13.9636H21.6645C21.444 13.9643 21.2422 13.8395 21.1444 13.6419L20.7232 12.8ZM10.4727 1.16366C15.6114 1.16973 19.7757 5.33399 19.7818 10.4727C19.7792 10.8642 19.7545 11.2552 19.7079 11.6439C18.1331 11.684 16.8763 12.9701 16.8727 14.5455V18.3476C15.0805 20.6772 12.9185 22.6971 10.4726 24.327C8.84365 23.2488 1.16366 17.778 1.16366 10.4727C1.16973 5.33399 5.33399 1.16973 10.4727 1.16366Z" fill="#14798B"/>
</svg>
