<svg width="169" height="101" viewBox="0 0 169 101" fill="none" xmlns="http://www.w3.org/2000/svg">
<path fill-rule="evenodd" clip-rule="evenodd" d="M153.574 55.8561C155.214 51.3915 156.11 46.5673 156.11 41.5339C156.11 18.5954 137.514 0 114.576 0C97.0592 0 82.0751 10.8437 75.9704 26.1846C70.743 22.3294 64.2816 20.0509 57.2879 20.0509C39.8863 20.0509 25.7795 34.1577 25.7795 51.5593C25.7795 53.0168 25.8784 54.4511 26.07 55.8559H15.5C6.93959 55.8559 0 62.7955 0 71.3559V84.7542C0 93.3146 6.93959 100.254 15.5 100.254H153.5C162.06 100.254 169 93.3146 169 84.7542V71.3559C169 62.8203 162.101 55.8961 153.574 55.8561Z" fill="url(#paint0_linear_119_542)"/>
<defs>
<linearGradient id="paint0_linear_119_542" x1="84.5" y1="0" x2="83.8222" y2="90.1484" gradientUnits="userSpaceOnUse">
<stop stop-color="#99EFFF"/>
<stop offset="1" stop-color="#99EFFF" stop-opacity="0"/>
</linearGradient>
</defs>
</svg>
